<svg version="1.1" xmlns="http://www.w3.org/2000/svg" xmlns:xlink="http://www.w3.org/1999/xlink" width="125.52618" height="124.92313" viewBox="0,0,125.52618,124.92313"><g transform="translate(-177.23691,-117.53843)"><g data-paper-data="{&quot;isPaintingLayer&quot;:true}" fill="#0063bf" fill-rule="nonzero" stroke="none" stroke-width="1" stroke-linecap="butt" stroke-linejoin="miter" stroke-miterlimit="10" stroke-dasharray="" stroke-dashoffset="0" style="mix-blend-mode: normal"><path d="M241.45924,125.66822c-0.93662,-0.37536 -1.98186,-0.37536 -2.91848,0l-46.82126,18.72694l48.28051,19.30749l48.28051,-19.30749zM294.9177,150.1929l-50.99501,20.398v62.15115l50.99501,-20.398v-62.1433zM236.07731,232.74989v-62.16684l-50.99501,-20.39016v62.15899zM235.63012,118.37985c2.80524,-1.1219 5.93452,-1.1219 8.73976,0l55.92976,22.37504c1.48771,0.59622 2.46308,2.03752 2.46345,3.64026v67.95673c-0.00203,3.20741 -1.95624,6.09057 -4.93475,7.28052l-56.3691,22.54764c-0.93662,0.37536 -1.98186,0.37536 -2.91848,0l-56.36125,-22.54764c-2.98159,-1.18746 -4.93928,-4.07117 -4.94259,-7.28052v-67.95673c0.00037,-1.60274 0.97574,-3.04404 2.46345,-3.64026z"/></g></g></svg>