<svg version="1.1" xmlns="http://www.w3.org/2000/svg" xmlns:xlink="http://www.w3.org/1999/xlink" width="255.04364" height="255.04364" viewBox="0,0,255.04364,255.04364"><g transform="translate(-112.47818,-52.47818)"><g data-paper-data="{&quot;isPaintingLayer&quot;:true}" fill-rule="nonzero" stroke="none" stroke-width="0" stroke-linejoin="miter" stroke-miterlimit="10" stroke-dasharray="" stroke-dashoffset="0" style="mix-blend-mode: normal"><path d="M112.47818,307.52182v-255.04364h255.04364v255.04364z" fill="#506a6c" stroke-linecap="butt"/><path d="M233.34407,261.68945h-74.04993v-15.45603l37.09475,-34.77678c3.1856,-3.09158 5.86711,-5.89014 8.04456,-8.39564c0.97268,-1.11252 1.88203,-2.27886 2.72372,-3.4935c0.90072,-1.30742 1.65563,-2.60191 2.26474,-3.88343c1.15539,-2.44837 1.74361,-5.12584 1.72085,-7.83305c0.00891,-1.34208 -0.13592,-2.68077 -0.43166,-3.9899c-0.32791,-1.4471 -0.8944,-2.82954 -1.67625,-4.09063c-1.3945,-2.23859 -3.39034,-4.03998 -5.75968,-5.19852c-1.73479,-0.85507 -3.60114,-1.41201 -5.52083,-1.64748c-0.9419,-0.12085 -1.89065,-0.18046 -2.84027,-0.17842c-1.48437,-0.00892 -2.96521,0.14549 -4.41581,0.46044c-1.42442,0.31191 -2.79901,0.81883 -4.08487,1.50646c-2.43547,1.31127 -4.30884,3.18464 -5.6201,5.62011c-0.76088,1.43551 -1.29755,2.97904 -1.59136,4.57695c-0.24748,1.28728 -0.37315,2.66569 -0.37698,4.13523c-0.00003,0.02303 -0.00003,0.04604 0,0.06907h-20.51355c-0.02105,-3.11697 0.34678,-6.2244 1.09497,-9.25031c0.75001,-2.99638 1.95643,-5.85957 3.57695,-8.48916c3.12219,-5.04178 7.61872,-9.08755 12.96108,-11.6618c3.75846,-1.83621 7.78703,-3.05795 11.9323,-3.61869c2.37813,-0.33371 4.77695,-0.49816 7.17838,-0.49209c3.25704,-0.01591 6.50849,0.27166 9.71217,0.85899c3.34766,0.61074 6.60111,1.65652 9.67764,3.11077c2.96929,1.39554 5.71833,3.21821 8.15967,5.41004c1.801,1.63408 3.39076,3.48679 4.73235,5.51508c2.72848,4.15301 4.29588,8.96052 4.53954,13.92366c0.04195,0.69753 0.06258,1.39617 0.06187,2.09496c-0.01218,3.95181 -0.78701,7.86411 -2.282,11.52224c-0.62881,1.53911 -1.36989,3.02993 -2.21725,4.46041c-0.84988,1.45418 -1.84748,2.96497 -2.99279,4.53235c-0.94125,1.28285 -1.92205,2.5362 -2.94099,3.75825c-3.91076,4.70693 -9.44886,10.33903 -16.61429,16.89631l-15.80855,15.59703v0.77266h44.26162z" fill="#ffffff" stroke-linecap="round"/><path d="M275.85709,144.14291v-91.66473h91.66473v91.66473z" fill="#425759" stroke-linecap="butt"/><path d="M321.68945,98.31055v-45.83237h45.83237v45.83237z" fill="#6a8c8f" stroke-linecap="butt"/></g></g></svg>